<svg version="1.2" xmlns="http://www.w3.org/2000/svg" viewBox="0 0 31 26" width="31" height="26"><style>.a{fill:#e74c3c}</style><path fill-rule="evenodd" class="a" d="m17.4 0c-0.5 0-1 0.1-1.5 0.3l-15.1 7.3c-0.5 0.2-0.8 0.6-0.8 1 0 0.5 0.3 0.8 0.8 1l8.5 4.1q0.1 0.1 0.2 0.1l8.5-0.2q0.1 0 0.2 0l12-5.8c0.5-0.2 0.8-0.6 0.8-1 0-0.4-0.3-0.8-0.8-1l-11.3-5.5c-0.5-0.2-1-0.3-1.5-0.3zm0 0.9c0.4 0 0.8 0.1 1.1 0.2l11.3 5.5c0.3 0.1 0.3 0.2 0.3 0.2 0 0 0 0.1-0.3 0.2l-11.8 5.7-4.2-2q-0.1-0.1-0.2-0.1-0.1 0-0.2 0.1l-4.2 2-8-3.9c-0.3-0.1-0.3-0.2-0.3-0.2 0 0 0-0.1 0.3-0.2l15.1-7.3c0.3-0.1 0.7-0.2 1.1-0.2zm1.3 2c-0.2 0-0.3 0.1-0.3 0.2q0 0.2 0.2 0.2l6.3 3.1c0.1 0 0.2 0 0.3-0.1 0-0.1 0-0.2-0.1-0.3q0 0 0 0l-6.3-3.1q-0.1 0-0.1 0zm-3.2 1.5c-0.1 0-0.2 0.1-0.2 0.3q0 0.1 0.1 0.2l6.3 3c0.1 0.1 0.3 0 0.3-0.1 0.1-0.1 0-0.2-0.1-0.3q0 0 0 0l-6.3-3q-0.1-0.1-0.1-0.1zm-3.2 1.6c-0.1 0-0.2 0.1-0.2 0.2q0 0.1 0.1 0.2l6.4 3c0.1 0.1 0.2 0 0.3-0.1 0-0.1 0-0.2-0.1-0.3l-6.4-3q0 0-0.1 0zm-5.4 0.1q-0.1 0-0.1 0l-4.8 2.3c-0.1 0.1-0.1 0.2-0.1 0.3q0.1 0.1 0.1 0.1l2.2 1.1c0.2 0 0.3 0 0.3-0.1 0.1-0.1 0.1-0.2 0-0.3q-0.1 0-0.1 0l-1.8-0.9 4.4-2.1c0.1 0 0.1-0.1 0.1-0.3q-0.1-0.1-0.2-0.1zm6.7 5.4l2.6 1.3-5.4 0.1zm16.8 0q-0.1 0-0.3 0.1l-16.7 7.9-12.6-6.2c-0.3-0.1-0.6 0-0.7 0.3-0.2 0.2-0.1 0.5 0.2 0.7q0 0 0 0l12.9 6.3q0.2 0.1 0.5 0l16.9-8.1c0.3-0.1 0.4-0.4 0.3-0.7-0.1-0.1-0.3-0.3-0.5-0.3zm-11.7 4.3q0 0-0.1 0l-5.2 2.6-4.8-2.4c-0.1-0.1-0.2 0-0.3 0.1-0.1 0.1 0 0.3 0.1 0.4l4.8 2.4q0.2 0 0.3 0l5.4-2.6c0.1-0.1 0.1-0.3 0.1-0.4q-0.1-0.1-0.3-0.1zm11.7 1q-0.1 0-0.3 0.1l-16.7 7.9-12.6-6.2c-0.3-0.1-0.6 0-0.7 0.2-0.2 0.3-0.1 0.6 0.2 0.7q0 0 0 0l12.9 6.4q0.2 0.1 0.5 0l16.9-8.1c0.3-0.1 0.4-0.4 0.3-0.7-0.1-0.2-0.3-0.3-0.5-0.3zm-11.7 4.2q0 0-0.1 0l-5.2 2.6-4.8-2.4c-0.1 0-0.2 0-0.3 0.2-0.1 0.1 0 0.2 0.1 0.3q0 0 0 0l4.8 2.4q0.2 0.1 0.3 0l5.4-2.6c0.1-0.1 0.1-0.2 0.1-0.3q-0.1-0.2-0.3-0.2z"/></svg>