<svg version="1.2" xmlns="http://www.w3.org/2000/svg" viewBox="0 0 28 22" width="28" height="22"><style>.a{fill:#e74c3c}</style><path fill-rule="evenodd" class="a" d="m22.1 21.6c0 0.2-0.2 0.4-0.5 0.4h-14.2c-0.3 0-0.5-0.2-0.5-0.4 0-0.3 0.2-0.5 0.5-0.5h5.2v-1.9c0-0.2 0.2-0.4 0.4-0.4 0.3 0 0.5 0.2 0.5 0.4v1.9h2v-1.9c0-0.2 0.2-0.4 0.5-0.4 0.2 0 0.4 0.2 0.4 0.4v1.9h5.2c0.3 0 0.5 0.2 0.5 0.5zm5.9-20.6v15.9c0 0.5-0.5 1-1 1h-0.8v0.1c0 0.3-0.2 0.5-0.4 0.5-0.3 0-0.5-0.2-0.5-0.5v-0.1h-0.9v0.1c0 0.3-0.2 0.5-0.4 0.5-0.3 0-0.5-0.2-0.5-0.5v-0.1h-0.8v0.1c0 0.3-0.2 0.5-0.5 0.5-0.2 0-0.4-0.2-0.4-0.5v-0.1h-19.8c-0.5 0-1-0.5-1-1v-15.9c0-0.5 0.5-1 1-1h25c0.5 0 1 0.5 1 1zm-0.9 0c0-0.1-0.1-0.1-0.1-0.1h-25c0 0-0.1 0-0.1 0.1v15.9c0 0 0.1 0.1 0.1 0.1h25c0 0 0.1-0.1 0.1-0.1zm-0.9 1.1v9.4c0 0.3-0.2 0.5-0.4 0.5-0.3 0-0.5-0.2-0.5-0.5v-8.9h-22.1c-0.2 0-0.4-0.2-0.4-0.5 0-0.2 0.2-0.4 0.4-0.4h22.6c0.2 0 0.4 0.2 0.4 0.4zm0 11.2v2.3c0 0.3-0.2 0.5-0.4 0.5h-22.6c-0.2 0-0.4-0.2-0.4-0.5v-11.7c0-0.2 0.2-0.4 0.4-0.4 0.3 0 0.5 0.2 0.5 0.4v11.3h21.6v-1.9c0-0.3 0.2-0.5 0.5-0.5 0.2 0 0.4 0.2 0.4 0.5z"/></svg>